<?xml version="1.0" standalone="no"?><!DOCTYPE svg PUBLIC "-//W3C//DTD SVG 1.1//EN" "http://www.w3.org/Graphics/SVG/1.1/DTD/svg11.dtd"><svg t="1584641003606" class="icon" viewBox="0 0 1024 1024" version="1.1" xmlns="http://www.w3.org/2000/svg" p-id="1137" width="48" height="48" xmlns:xlink="http://www.w3.org/1999/xlink"><defs><style type="text/css"></style></defs><path d="M837.60128 512.186368c-0.016384 187.918336-151.396352 338.792448-339.861504 338.72896-187.144192-0.063488-338.087936-151.744512-337.963008-339.607552 0.124928-187.746304 151.732224-338.39104 340.3776-338.221056 186.544128 0.169984 337.463296 151.82848 337.446912 339.099648z m-388.675584 98.75456c-11.382784-12.218368-21.49376-23.7568-32.325632-34.572288-27.291648-27.246592-54.841344-54.23104-82.425856-81.180672-9.166848-8.955904-18.413568-7.624704-25.769984 2.44736-7.411712 10.151936 0.237568 15.845376 6.07232 21.639168 39.704576 39.446528 79.59552 78.70464 119.451648 117.997568 13.850624 13.654016 20.656128 13.570048 34.004992-0.63488 54.915072-58.441728 109.789184-116.928512 164.6592-175.413248 17.979392-19.163136 36.063232-38.230016 53.788672-57.626624 9.490432-10.387456 5.679104-25.380864-7.282688-26.662912-5.494784-0.544768-13.049856 3.551232-17.184768 7.901184-51.49696 54.161408-102.52288 108.771328-153.698304 163.237888-18.898944 20.119552-37.875712 40.165376-59.2896 62.867456z" fill="#f00000" p-id="1138"></path></svg>